<svg id="Layer_1" data-name="Layer 1" xmlns="http://www.w3.org/2000/svg" viewBox="0 0 161 30"><defs><style>.cls-1{fill:#3c3834;}</style></defs><title>logo-dark</title><path class="cls-1" d="M21.63,18.56a4.08,4.08,0,0,0,.22-2.35A4,4,0,0,0,20.29,18,5.44,5.44,0,0,0,20,20.57,5.39,5.39,0,0,0,21.63,18.56Z"/><path class="cls-1" d="M17.35,20.35A5.4,5.4,0,0,0,17,17.77,4,4,0,0,0,15.42,16a4,4,0,0,0,.25,2.35A5.35,5.35,0,0,0,17.35,20.35Z"/><path class="cls-1" d="M18.94,6.33v5.09a3.82,3.82,0,0,0,.81-2.54A3.9,3.9,0,0,0,18.94,6.33Z"/><path class="cls-1" d="M18.38,11.56V6.19a3.82,3.82,0,0,0-.94,2.69A3.71,3.71,0,0,0,18.38,11.56Z"/><path class="cls-1" d="M34.46,2.34C32,.3,27.34,0,18.55,0S5.17.31,2.7,2.35,0,8.13,0,14.87s.22,10.54,2.68,12.6,7.09,2.34,15.86,2.34,13.44-.3,15.91-2.34,2.69-5.8,2.69-12.6S36.93,4.38,34.46,2.34Zm-10,2.12a1.71,1.71,0,0,1,1.06-.66,2.07,2.07,0,0,1,2.2.21c1.22.95.43,2.71.43,2.71s-.24,1.54-.32,1.74-.55.4-.55.4a3.12,3.12,0,0,1-.57.08A1.74,1.74,0,0,1,26,8.78c-.14-.07-.16-.33-.16-.33a1,1,0,0,0-.11-.31,2,2,0,0,1-1.18-.88,2.7,2.7,0,0,1,0-1.69A5.1,5.1,0,0,0,24.49,4.46ZM8.59,4a2.45,2.45,0,0,1,3.26,1.2c.37.81.21,1.11-.3,1.37a1.62,1.62,0,0,1-1.49,2.24,1.62,1.62,0,0,1-1.49-1c-.5.17-.88.1-1.17-.56A2.47,2.47,0,0,1,8.59,4ZM34.65,24.17H24.71l-.07.23s-.57,1.75-1.66,1.47-.59-1.67-.59-1.67v0H18.94V26.1h-.56V24.17H15.23l.11.47a1.06,1.06,0,0,1-.58,1.2c-.82.33-1.28-.79-1.28-.79s-.18-.38-.39-.89H2.46v-.56h10.4c-.08-.2-.16-.41-.23-.61-.33-.95-.76-2.6-.85-2.65s-.74-.06-1.48-.15S9,19.87,9,19.9,7.16,22,6.12,22.2,4,21.08,4,21.08L2.73,19.42s-.49-.66-.13-1a.67.67,0,0,1,.89-.12l1.92,1.23c.14.08.18,0,.18,0A6,6,0,0,0,6,19.1c.1-.12,0-.19,0-.19L4.84,17.72c-.28-.29,0-.72,0-.72l2.53-5L4,12.66s-.63.16-.78-.27.49-.77.49-.77L8.12,9a1,1,0,0,1,.28-.14A.61.61,0,0,1,8.65,9a2.41,2.41,0,0,0,1.44.45,2,2,0,0,0,1.32-.53.58.58,0,0,1,.27-.15c.15,0,.53.38.53.38l3.88,4.31s.42.46.1.87-.89,0-.89,0-2.45-1.47-2.54-1.5-.07.1-.07.1l2.4,10.72h3.28V12.33a4,4,0,0,1-1.52-3.45,4.06,4.06,0,0,1,1.58-3.52.3.3,0,0,1,.31,0,4.06,4.06,0,0,1,1.58,3.52,4.11,4.11,0,0,1-1.4,3.36V23.61H22.5l1.46-7s.83-3.93.78-4-3,1.87-3,1.87a.59.59,0,0,1-.83,0c-.43-.41.19-1,.19-1l3.7-4.31a.41.41,0,0,1,.29-.14c.22,0,.25.16.25.16a7.66,7.66,0,0,0,.46,1,6.17,6.17,0,0,0,.61-.58s.28-.28.43-.3a.24.24,0,0,1,.23.11l.6.86s.15.21.19.19.09-.09.09-.09l.7-1.31A1.41,1.41,0,0,1,29,8.82c.14-.11.44.09.44.09l4.2,2.52a.72.72,0,0,1,.42.83c-.19.64-1.16.31-1.16.31S30,12,29.93,12s0,.15,0,.15,2.27,5.16,2.25,5.47a.68.68,0,0,1-.3.44,4.67,4.67,0,0,0-.78.56.2.2,0,0,0,.06.15,3.06,3.06,0,0,0,.51.45c.11,0,.31-.11.31-.11l1.32-.7s.63-.5,1.11,0-.18,1.05-.18,1.05L33,20.89S32.22,22,31.47,22.1a2.23,2.23,0,0,1-1.53-.62L27.61,19.2s-.1,0-.1,0a4.05,4.05,0,0,1-.35.74.79.79,0,0,1-.3.14s-.95.14-1,.17-.08.22-.08.22l-.92,3.11h9.78v.56h0ZM17.5,17.54a6.17,6.17,0,0,1,.34,3.35.27.27,0,0,1-.16.2.29.29,0,0,1-.26,0,6.23,6.23,0,0,1-2.27-2.5A4.56,4.56,0,0,1,15,15.49a.28.28,0,0,1,.15-.16.27.27,0,0,1,.22,0A4.54,4.54,0,0,1,17.5,17.54Zm4.42-2a.27.27,0,0,1,.22,0,.28.28,0,0,1,.15.16,4.57,4.57,0,0,1-.16,3.09,6.2,6.2,0,0,1-2.23,2.53.28.28,0,0,1-.42-.18,6.19,6.19,0,0,1,.29-3.35A4.57,4.57,0,0,1,21.92,15.53Z"/><path class="cls-1" d="M46.36,8.27a2.48,2.48,0,0,0,.22,1.09,2,2,0,0,0,.6.74,2.57,2.57,0,0,0,.89.42,4.31,4.31,0,0,0,1.09.13,3.49,3.49,0,0,0,1.08-.15,2.18,2.18,0,0,0,.73-.38,1.37,1.37,0,0,0,.4-.53A1.61,1.61,0,0,0,51.51,9,1.32,1.32,0,0,0,51.22,8a1.65,1.65,0,0,0-.63-.43,13.36,13.36,0,0,0-1.37-.41l-1.93-.5a4.15,4.15,0,0,1-1.19-.49,2.84,2.84,0,0,1-.75-.67,2.36,2.36,0,0,1-.4-.79,3.17,3.17,0,0,1-.12-.85,2.88,2.88,0,0,1,.35-1.45,3.1,3.1,0,0,1,.92-1,4,4,0,0,1,1.3-.6,5.89,5.89,0,0,1,3.11,0,4,4,0,0,1,1.35.67,3.3,3.3,0,0,1,.92,1.11,3.27,3.27,0,0,1,.34,1.53H51.2a1.87,1.87,0,0,0-.73-1.51,2.89,2.89,0,0,0-1.66-.44,3.59,3.59,0,0,0-.7.07,2.23,2.23,0,0,0-.65.23A1.43,1.43,0,0,0,47,3a1.2,1.2,0,0,0-.19.7,1.18,1.18,0,0,0,.36.92,2.34,2.34,0,0,0,1,.5l.49.13,1,.26,1,.27.72.19a3.23,3.23,0,0,1,.95.46,3,3,0,0,1,.67.67,2.81,2.81,0,0,1,.4.81,3,3,0,0,1,.13.87,3.13,3.13,0,0,1-.38,1.59,3.21,3.21,0,0,1-1,1.08,4.33,4.33,0,0,1-1.41.61,6.71,6.71,0,0,1-1.61.19A6.66,6.66,0,0,1,47.26,12a4.17,4.17,0,0,1-1.46-.71,3.49,3.49,0,0,1-1-1.23,4.09,4.09,0,0,1-.39-1.78Z"/><path class="cls-1" d="M59.85.63a5.14,5.14,0,0,1,2.22.46,5,5,0,0,1,1.67,1.25,5.59,5.59,0,0,1,1,1.84,6.79,6.79,0,0,1,.36,2.23,6.83,6.83,0,0,1-.36,2.25,5.58,5.58,0,0,1-1,1.84,4.88,4.88,0,0,1-1.67,1.25,5.64,5.64,0,0,1-4.45,0A4.88,4.88,0,0,1,56,10.52a5.57,5.57,0,0,1-1-1.84,6.83,6.83,0,0,1-.36-2.25,6.79,6.79,0,0,1,.36-2.23,5.58,5.58,0,0,1,1-1.84A5,5,0,0,1,57.63,1.1,5.14,5.14,0,0,1,59.85.63Zm0,1.58a3.09,3.09,0,0,0-1.53.36,3,3,0,0,0-1,1,4.29,4.29,0,0,0-.6,1.36,6.3,6.3,0,0,0,0,3.1,4.31,4.31,0,0,0,.6,1.36,3,3,0,0,0,1,1,3.45,3.45,0,0,0,3.05,0,3,3,0,0,0,1-1A4.31,4.31,0,0,0,63,8a6.3,6.3,0,0,0,0-3.1,4.29,4.29,0,0,0-.6-1.36,3,3,0,0,0-1-1A3.1,3.1,0,0,0,59.85,2.21Z"/><path class="cls-1" d="M68.19,8.27a2.48,2.48,0,0,0,.22,1.09,2,2,0,0,0,.6.74,2.57,2.57,0,0,0,.89.42,4.31,4.31,0,0,0,1.09.13,3.49,3.49,0,0,0,1.08-.15,2.18,2.18,0,0,0,.73-.38,1.37,1.37,0,0,0,.4-.53A1.61,1.61,0,0,0,73.33,9,1.32,1.32,0,0,0,73,8a1.65,1.65,0,0,0-.63-.43A13.36,13.36,0,0,0,71,7.19l-1.93-.5a4.15,4.15,0,0,1-1.19-.49,2.84,2.84,0,0,1-.75-.67,2.36,2.36,0,0,1-.4-.79,3.17,3.17,0,0,1-.12-.85A2.88,2.88,0,0,1,67,2.44a3.1,3.1,0,0,1,.92-1,4,4,0,0,1,1.3-.6,5.89,5.89,0,0,1,3.11,0,4,4,0,0,1,1.35.67,3.3,3.3,0,0,1,.92,1.11A3.27,3.27,0,0,1,75,4.16H73a1.87,1.87,0,0,0-.73-1.51,2.89,2.89,0,0,0-1.66-.44,3.59,3.59,0,0,0-.7.07,2.23,2.23,0,0,0-.65.23A1.43,1.43,0,0,0,68.8,3a1.2,1.2,0,0,0-.19.7,1.18,1.18,0,0,0,.36.92,2.34,2.34,0,0,0,1,.5l.49.13,1,.26,1,.27.72.19a3.23,3.23,0,0,1,.95.46,3,3,0,0,1,.67.67,2.81,2.81,0,0,1,.4.81,3,3,0,0,1,.13.87,3.13,3.13,0,0,1-.38,1.59,3.21,3.21,0,0,1-1,1.08,4.33,4.33,0,0,1-1.41.61,6.71,6.71,0,0,1-1.61.19A6.66,6.66,0,0,1,69.09,12a4.17,4.17,0,0,1-1.46-.71,3.49,3.49,0,0,1-1-1.23,4.09,4.09,0,0,1-.39-1.78Z"/><path class="cls-1" d="M45.09,18.68h5.38a3.85,3.85,0,0,1,2.39.68,2.42,2.42,0,0,1,.9,2.06,2.47,2.47,0,0,1-.41,1.43,2.64,2.64,0,0,1-1.17.92v0a2.42,2.42,0,0,1,1.55,1,3.2,3.2,0,0,1,.53,1.88A3.16,3.16,0,0,1,54,27.88a2.47,2.47,0,0,1-.73,1,3.67,3.67,0,0,1-1.27.65,6.26,6.26,0,0,1-1.84.24H45.09ZM47,23.32h3.16a1.73,1.73,0,0,0,1.16-.4,1.41,1.41,0,0,0,.46-1.14,1.44,1.44,0,0,0-.42-1.18,1.87,1.87,0,0,0-1.21-.34H47Zm0,4.85h3.43a1.93,1.93,0,0,0,1.37-.46,1.69,1.69,0,0,0,.49-1.29,1.62,1.62,0,0,0-.49-1.26,2,2,0,0,0-1.37-.44H47Z"/><path class="cls-1" d="M66,18.93l-1.22,1.38a6,6,0,0,1,.93,1.78,7.11,7.11,0,0,1,0,4.37,5.58,5.58,0,0,1-1,1.84,4.88,4.88,0,0,1-1.67,1.25,5.64,5.64,0,0,1-4.15.12,4.93,4.93,0,0,1-1.51-.93L56.1,30.06l-.65-.56,1.22-1.39a5.77,5.77,0,0,1-.93-1.77,7.05,7.05,0,0,1,0-4.36,5.58,5.58,0,0,1,1-1.84,5,5,0,0,1,1.67-1.25,5.14,5.14,0,0,1,2.22-.46,5.3,5.3,0,0,1,1.93.33,4.82,4.82,0,0,1,1.51.92l1.16-1.3Zm-3,2a2.82,2.82,0,0,0-1-.71A3.17,3.17,0,0,0,60.72,20a3.09,3.09,0,0,0-1.53.36,3,3,0,0,0-1,1,4.29,4.29,0,0,0-.6,1.36,6.24,6.24,0,0,0-.19,1.55,6.47,6.47,0,0,0,.13,1.32,4.27,4.27,0,0,0,.43,1.18Zm-4.59,6.48a3.14,3.14,0,0,0,1,.71,3.07,3.07,0,0,0,1.31.26,3.11,3.11,0,0,0,1.53-.36,3,3,0,0,0,1-1,4.31,4.31,0,0,0,.6-1.36,6.23,6.23,0,0,0,.19-1.55,6.5,6.5,0,0,0-.13-1.31,4,4,0,0,0-.44-1.19Z"/><path class="cls-1" d="M67.79,18.68h5.29a4.1,4.1,0,0,1,2.74.79,2.76,2.76,0,0,1,.91,2.2A3.22,3.22,0,0,1,76.5,23a2.86,2.86,0,0,1-.54.84,2.12,2.12,0,0,1-.61.46l-.44.19v0a2,2,0,0,1,.53.16A1.58,1.58,0,0,1,76,25a2.16,2.16,0,0,1,.41.71,3.12,3.12,0,0,1,.16,1.08,9.81,9.81,0,0,0,.15,1.77,2.33,2.33,0,0,0,.46,1.14H75.07a1.81,1.81,0,0,1-.26-.79c0-.29,0-.57,0-.84a8,8,0,0,0-.09-1.31,2.28,2.28,0,0,0-.34-.91,1.45,1.45,0,0,0-.67-.54,3,3,0,0,0-1.09-.17H69.72v4.56H67.79Zm1.94,5H72.9a2,2,0,0,0,1.41-.44A1.71,1.71,0,0,0,74.79,22a2.05,2.05,0,0,0-.16-.86,1.25,1.25,0,0,0-.43-.52,1.56,1.56,0,0,0-.62-.25,4.14,4.14,0,0,0-.72-.06H69.72Z"/><path class="cls-1" d="M78.62,18.68h2l5.05,8.15h0V18.68h1.84V29.75h-2l-5-8.14h0v8.14H78.62Z"/><path class="cls-1" d="M89.58,18.68h8v1.67h-6v2.9H97.1v1.58H91.52v3.24h6.14v1.67H89.58Z"/><path class="cls-1" d="M99.34,18.68h5.38a3.85,3.85,0,0,1,2.39.68,2.42,2.42,0,0,1,.9,2.06,2.47,2.47,0,0,1-.41,1.43,2.64,2.64,0,0,1-1.17.92v0a2.42,2.42,0,0,1,1.55,1,3.2,3.2,0,0,1,.53,1.88,3.16,3.16,0,0,1-.23,1.22,2.47,2.47,0,0,1-.73,1,3.67,3.67,0,0,1-1.27.65,6.26,6.26,0,0,1-1.84.24H99.34Zm1.94,4.63h3.16a1.73,1.73,0,0,0,1.16-.4,1.41,1.41,0,0,0,.46-1.14,1.44,1.44,0,0,0-.42-1.18,1.87,1.87,0,0,0-1.21-.34h-3.16Zm0,4.85h3.43a1.93,1.93,0,0,0,1.37-.46,1.69,1.69,0,0,0,.49-1.29,1.62,1.62,0,0,0-.49-1.26,2,2,0,0,0-1.37-.44h-3.43Z"/><path class="cls-1" d="M113.14,25.41,109,18.68h2.25l2.93,5,2.88-5h2.17l-4.14,6.73v4.34h-1.94Z"/><path class="cls-1" d="M120.3,18.68h8v1.67h-6v2.9h5.58v1.58h-5.58v3.24h6.14v1.67H120.3Z"/><path class="cls-1" d="M130.06,18.68h5.29a4.1,4.1,0,0,1,2.74.79,2.76,2.76,0,0,1,.91,2.2,3.22,3.22,0,0,1-.23,1.31,2.86,2.86,0,0,1-.54.84,2.12,2.12,0,0,1-.61.46l-.44.19v0a2,2,0,0,1,.53.16,1.58,1.58,0,0,1,.53.4,2.16,2.16,0,0,1,.41.71,3.12,3.12,0,0,1,.16,1.08,9.81,9.81,0,0,0,.15,1.77,2.33,2.33,0,0,0,.46,1.14h-2.08a1.81,1.81,0,0,1-.26-.79c0-.29,0-.57,0-.84a8,8,0,0,0-.09-1.31,2.28,2.28,0,0,0-.34-.91,1.45,1.45,0,0,0-.67-.54,3,3,0,0,0-1.09-.17H132v4.56h-1.94Zm1.94,5h3.18a2,2,0,0,0,1.41-.44,1.71,1.71,0,0,0,.48-1.33,2.05,2.05,0,0,0-.16-.86,1.25,1.25,0,0,0-.43-.52,1.56,1.56,0,0,0-.62-.25,4.14,4.14,0,0,0-.72-.06H132Z"/><path class="cls-1" d="M140.9,18.68h2L148,26.83h0V18.68h1.84V29.75h-2l-5-8.14h0v8.14H140.9Z"/><path class="cls-1" d="M152.17,18.68h8v1.67h-6v2.9h5.58v1.58H154.1v3.24h6.14v1.67h-8.08Z"/></svg>