<svg width="31" height="37" viewBox="0 0 31 37" fill="none" xmlns="http://www.w3.org/2000/svg">
<path d="M0.362695 9.65333H7.17227V36.2001H0.362695V9.65333ZM21.1498 9.65333C19.8835 9.65333 18.8979 9.89844 18.193 10.3886C17.4882 10.8789 16.8729 11.3376 16.3473 11.765V9.65333H9.50187V36.2001H16.3473V19.4952C16.3473 19.4952 16.4608 18.9422 16.6878 17.8361C16.9147 16.73 17.984 16.1769 19.8954 16.1769C21.0423 16.1769 21.8845 16.4848 22.4221 17.1008C22.9597 17.7167 23.2285 18.5148 23.2285 19.4952V36.2001H30.4324V19.7215C30.4324 17.459 30.062 15.6615 29.3213 14.3292C28.5806 12.9968 27.7026 11.985 26.6871 11.2937C25.6716 10.6023 24.6382 10.1561 23.5869 9.955C22.5356 9.75389 21.7233 9.65333 21.1498 9.65333ZM0.291016 3.61999C0.291016 4.62554 0.625521 5.48027 1.29453 6.18416C1.96354 6.88805 2.77591 7.24 3.73164 7.24C4.68737 7.24 5.49975 6.88805 6.16876 6.18416C6.83777 5.48027 7.17227 4.62554 7.17227 3.61999C7.17227 2.61443 6.83777 1.7597 6.16876 1.05581C5.49975 0.351921 4.68737 -2.45571e-05 3.73164 -2.45571e-05C2.77591 -2.45571e-05 1.96354 0.351921 1.29453 1.05581C0.625521 1.7597 0.291016 2.61443 0.291016 3.61999Z" fill="#002D2D"/>
</svg>
