<svg width="34" height="36" viewBox="0 0 34 36" fill="none" xmlns="http://www.w3.org/2000/svg">
<path d="M17 3.23438C19.2799 3.23438 20.7686 3.24023 21.4658 3.25195C22.1631 3.26367 22.9655 3.29297 23.873 3.33984C24.6921 3.38672 25.3451 3.47461 25.832 3.60352C26.319 3.73242 26.7174 3.85547 27.0273 3.97266C27.4258 4.13672 27.7744 4.32422 28.0732 4.53516C28.3721 4.74609 28.6764 5.00391 28.9863 5.30859C29.2741 5.63672 29.5176 5.95898 29.7168 6.27539C29.916 6.5918 30.0931 6.96094 30.248 7.38281C30.3587 7.71094 30.4749 8.13281 30.5967 8.64844C30.7184 9.16406 30.8014 9.85547 30.8457 10.7227C30.89 11.6836 30.9176 12.5332 30.9287 13.2715C30.9398 14.0098 30.9453 15.5859 30.9453 18C30.9453 20.4141 30.9398 21.9902 30.9287 22.7285C30.9176 23.4668 30.89 24.3164 30.8457 25.2773C30.8014 26.1445 30.7184 26.8359 30.5967 27.3516C30.4749 27.8672 30.3587 28.2891 30.248 28.6172C30.0931 29.0391 29.916 29.4082 29.7168 29.7246C29.5176 30.041 29.2741 30.3633 28.9863 30.6914C28.6764 30.9961 28.3721 31.2539 28.0732 31.4648C27.7744 31.6758 27.4258 31.8633 27.0273 32.0273C26.7174 32.1445 26.319 32.2676 25.832 32.3965C25.3451 32.5254 24.6921 32.6133 23.873 32.6602C22.9655 32.707 22.1631 32.7363 21.4658 32.748C20.7686 32.7598 19.2799 32.7656 17 32.7656C14.7201 32.7656 13.2314 32.7598 12.5342 32.748C11.8369 32.7363 11.0345 32.707 10.127 32.6602C9.30794 32.6133 8.65495 32.5254 8.16797 32.3965C7.68099 32.2676 7.28255 32.1445 6.97266 32.0273C6.57422 31.8633 6.22559 31.6758 5.92676 31.4648C5.62793 31.2539 5.32357 30.9961 5.01367 30.6914C4.72591 30.3633 4.48242 30.041 4.2832 29.7246C4.08398 29.4082 3.9069 29.0391 3.75195 28.6172C3.64128 28.2891 3.52507 27.8672 3.40332 27.3516C3.28158 26.8359 3.19857 26.1445 3.1543 25.2773C3.11003 24.3164 3.08236 23.4668 3.07129 22.7285C3.06022 21.9902 3.05469 20.4141 3.05469 18C3.05469 15.5859 3.06022 14.0098 3.07129 13.2715C3.08236 12.5332 3.11003 11.6836 3.1543 10.7227C3.19857 9.85547 3.28158 9.16406 3.40332 8.64844C3.52507 8.13281 3.64128 7.71094 3.75195 7.38281C3.9069 6.96094 4.08398 6.5918 4.2832 6.27539C4.48242 5.95898 4.72591 5.63672 5.01367 5.30859C5.32357 5.00391 5.62793 4.74609 5.92676 4.53516C6.22559 4.32422 6.57422 4.13672 6.97266 3.97266C7.28255 3.85547 7.68099 3.73242 8.16797 3.60352C8.65495 3.47461 9.30794 3.38672 10.127 3.33984C11.0345 3.29297 11.8369 3.26367 12.5342 3.25195C13.2314 3.24023 14.7201 3.23438 17 3.23438ZM17 0C14.6979 0 13.1816 0.00585937 12.4512 0.0175781C11.7207 0.0292969 10.9017 0.0585937 9.99414 0.105469C9.08659 0.152344 8.30632 0.246094 7.65332 0.386719C7.00033 0.527344 6.4082 0.714844 5.87695 0.949219C5.30143 1.18359 4.77018 1.46484 4.2832 1.79297C3.79622 2.12109 3.32031 2.53125 2.85547 3.02344C2.39062 3.51562 2.00326 4.01953 1.69336 4.53516C1.38346 5.05078 1.11784 5.61328 0.896484 6.22266C0.67513 6.78516 0.498047 7.41211 0.365234 8.10352C0.232422 8.79492 0.14388 9.62109 0.0996094 10.582C0.0553385 11.543 0.0276693 12.4102 0.0166016 13.1836C0.00553385 13.957 0 15.5625 0 18C0 20.4375 0.00553385 22.043 0.0166016 22.8164C0.0276693 23.5898 0.0553385 24.457 0.0996094 25.418C0.14388 26.3789 0.232422 27.2051 0.365234 27.8965C0.498047 28.5879 0.67513 29.2148 0.896484 29.7773C1.11784 30.3867 1.38346 30.9492 1.69336 31.4648C2.00326 31.9805 2.39062 32.4844 2.85547 32.9766C3.32031 33.4688 3.79622 33.8789 4.2832 34.207C4.77018 34.5352 5.30143 34.8164 5.87695 35.0508C6.4082 35.2852 7.00033 35.4727 7.65332 35.6133C8.30632 35.7539 9.08659 35.8477 9.99414 35.8945C10.9017 35.9414 11.7207 35.9707 12.4512 35.9824C13.1816 35.9941 14.6979 36 17 36C19.3021 36 20.8184 35.9941 21.5488 35.9824C22.2793 35.9707 23.0983 35.9414 24.0059 35.8945C24.9134 35.8477 25.6937 35.7539 26.3467 35.6133C26.9997 35.4727 27.5918 35.2852 28.123 35.0508C28.6986 34.8164 29.2298 34.5352 29.7168 34.207C30.2038 33.8789 30.6797 33.4688 31.1445 32.9766C31.6094 32.4844 31.9967 31.9805 32.3066 31.4648C32.6165 30.9492 32.8822 30.3867 33.1035 29.7773C33.3249 29.2148 33.502 28.5879 33.6348 27.8965C33.7676 27.2051 33.8561 26.3789 33.9004 25.418C33.9447 24.457 33.9723 23.5898 33.9834 22.8164C33.9945 22.043 34 20.4375 34 18C34 15.5625 33.9945 13.957 33.9834 13.1836C33.9723 12.4102 33.9447 11.543 33.9004 10.582C33.8561 9.62109 33.7676 8.79492 33.6348 8.10352C33.502 7.41211 33.3249 6.78516 33.1035 6.22266C32.8822 5.61328 32.6165 5.05078 32.3066 4.53516C31.9967 4.01953 31.6094 3.51562 31.1445 3.02344C30.6797 2.53125 30.2038 2.12109 29.7168 1.79297C29.2298 1.46484 28.6986 1.18359 28.123 0.949219C27.5918 0.714844 26.9997 0.527344 26.3467 0.386719C25.6937 0.246094 24.9134 0.152344 24.0059 0.105469C23.0983 0.0585937 22.2793 0.0292969 21.5488 0.0175781C20.8184 0.00585937 19.3021 0 17 0ZM17 8.75391C15.8047 8.75391 14.6758 9 13.6133 9.49219C12.5508 9.96094 11.6211 10.6172 10.8242 11.4609C10.0273 12.3047 9.40755 13.2891 8.96484 14.4141C8.5 15.5391 8.26758 16.7344 8.26758 18C8.26758 19.2656 8.5 20.4609 8.96484 21.5859C9.40755 22.7109 10.0273 23.6953 10.8242 24.5391C11.6211 25.3828 12.5508 26.0391 13.6133 26.5078C14.6758 27 15.8047 27.2461 17 27.2461C18.1953 27.2461 19.3242 27 20.3867 26.5078C21.4492 26.0391 22.3789 25.3828 23.1758 24.5391C23.9727 23.6953 24.5924 22.7109 25.0352 21.5859C25.5 20.4609 25.7324 19.2656 25.7324 18C25.7324 16.7344 25.5 15.5391 25.0352 14.4141C24.5924 13.2891 23.9727 12.3047 23.1758 11.4609C22.3789 10.6172 21.4492 9.96094 20.3867 9.49219C19.3242 9 18.1953 8.75391 17 8.75391ZM17 24.0117C15.4284 24.0117 14.0892 23.4258 12.9824 22.2539C11.8757 21.082 11.3223 19.6641 11.3223 18C11.3223 16.3359 11.8757 14.918 12.9824 13.7461C14.0892 12.5742 15.4284 11.9883 17 11.9883C18.5716 11.9883 19.9108 12.5742 21.0176 13.7461C22.1243 14.918 22.6777 16.3359 22.6777 18C22.6777 19.6641 22.1243 21.082 21.0176 22.2539C19.9108 23.4258 18.5716 24.0117 17 24.0117ZM28.123 8.40234C28.123 8.98828 27.9238 9.49219 27.5254 9.91406C27.127 10.3359 26.64 10.5469 26.0645 10.5469C25.5111 10.5469 25.0352 10.3359 24.6367 9.91406C24.2383 9.49219 24.0391 8.98828 24.0391 8.40234C24.0391 7.79297 24.2383 7.27734 24.6367 6.85547C25.0352 6.43359 25.5111 6.22266 26.0645 6.22266C26.64 6.22266 27.127 6.43359 27.5254 6.85547C27.9238 7.27734 28.123 7.79297 28.123 8.40234Z" fill="#002D2D"/>
</svg>
