<svg width="46" height="36" viewBox="0 0 46 36" fill="none" xmlns="http://www.w3.org/2000/svg">
<path d="M39.8008 0.622028C37.1654 0.457096 34.4401 0.308658 31.625 0.176712C28.8099 0.0777527 25.9648 0.0200256 23.0898 0.00353241C20.2148 -0.0129608 17.3548 0.0282722 14.5098 0.127232C11.6647 0.226191 8.89453 0.391123 6.19922 0.622028C4.55208 0.852934 3.20443 1.85902 2.15625 3.64029C1.10807 5.42156 0.524089 7.16984 0.404297 8.88514C0.134766 12.4147 0 15.4412 0 17.9647C0 20.4881 0.134766 23.5146 0.404297 27.0442C0.524089 28.7595 1.10059 30.516 2.13379 32.3138C3.16699 34.1115 4.53711 35.1259 6.24414 35.3568C8.93945 35.5547 11.7096 35.7031 14.5547 35.8021C17.3997 35.934 20.2598 36 23.1348 36C26.0098 36 28.8548 35.9505 31.6699 35.8516C34.485 35.7526 37.1953 35.5877 39.8008 35.3568C41.418 35.0599 42.7581 34.0291 43.8213 32.2643C44.8844 30.4995 45.4759 28.7595 45.5957 27.0442C45.7454 25.2959 45.8503 23.6631 45.9102 22.1457C45.9701 20.6613 46 19.1934 46 17.742C46 16.2906 45.9701 14.8227 45.9102 13.3383C45.8503 11.8209 45.7454 10.1881 45.5957 8.43982C45.4759 6.75751 44.9443 5.05871 44.001 3.34341C43.0576 1.62811 41.6576 0.720988 39.8008 0.622028ZM17.25 26.9452V8.78618L31.625 17.8904L17.25 26.9452Z" fill="#002D2D"/>
</svg>
